<mxfile host="app.diagrams.net" modified="2023-07-03T21:41:32.018Z" agent="Mozilla/5.0 (Windows NT 10.0; Win64; x64) AppleWebKit/537.36 (KHTML, like Gecko) Chrome/114.0.0.0 Safari/537.36" etag="0H2pltLF7aY3tG_AMz4p" version="21.4.0" type="device">
  <diagram name="Strona-1" id="_CovSnVJDpAvzBF0vUQy">
    <mxGraphModel dx="3286" dy="1194" grid="1" gridSize="10" guides="1" tooltips="1" connect="1" arrows="1" fold="1" page="1" pageScale="1" pageWidth="827" pageHeight="1169" math="0" shadow="0">
      <root>
        <mxCell id="0" />
        <mxCell id="1" parent="0" />
      </root>
    </mxGraphModel>
  </diagram>
</mxfile>
